<svg id="Layer_1" enable-background="new 0 0 512 512" height="512" viewBox="0 0 512 512" width="512" xmlns="http://www.w3.org/2000/svg"><g><path d="m429.186 417.546c37.856-43.127 60.818-99.652 60.818-161.546 0-135.311-109.691-245.002-245.002-245.002-68.856 0-131.066 28.417-175.575 74.148l76.869 332.4z" fill="#73c3f9"/><path d="m161.352 482.654.929 4.017c25.843 9.269 53.689 14.332 82.721 14.332 32.981 0 64.432-6.533 93.151-18.349z" fill="#2a428c"/><path d="m461.378 83.49h-390.334c-7.565 7.628-14.618 15.761-21.133 24.325l-26.972 44.592c-14.708 31.466-22.939 66.565-22.939 103.593 0 37.025 8.234 72.119 22.938 103.584l40.387 60.754c8.128 8.979 16.895 17.368 26.26 25.062h366.948c13.727 0 24.854-11.128 24.854-24.854v-317.047c.001-11.051-8.958-20.009-20.009-20.009z" fill="#2a428c"/><path d="m71.044 83.49c-7.565 7.628-14.618 15.761-21.133 24.325l-26.972 44.592c-14.708 31.466-22.939 66.565-22.939 103.593 0 37.025 8.234 72.119 22.938 103.584l40.387 60.754c8.128 8.979 16.895 17.368 26.26 25.062h28.604l.794-.794c-13.212-13.212 0-24.162 0-24.162-6.019-6.019 0-12.685 0-12.685l.498-94.857c-7.687-7.687-.147-14.643-.147-14.643l-.13-94.857c-7.596-7.596 0-14.643 0-14.643s6.379-85.544 0-94.857c-3.173-4.632-2.758-8.098-1.541-10.413h-46.619z" fill="#1c2e7a"/><path d="m22.938 152.408v207.175c10.413 22.283 24.077 42.736 40.388 60.755l393.207.736c.262 0 .528-.268.528-.529 0-15.91 0-295.415 0-311.275 0-.804-.652-1.457-1.457-1.457h-405.693c-10.494 13.795-19.558 28.731-26.973 44.595z" fill="#73c3f9"/><path d="m118.983 407.759.498-94.857c-7.687-7.687-.147-14.643-.147-14.643l-.13-94.857c-7.596-7.596 0-14.643 0-14.643s4.035-54.11 2.477-80.945h-71.77c-10.494 13.793-19.558 28.73-26.973 44.594v207.175c10.413 22.283 24.077 42.736 40.388 60.756l55.656.104c-6.017-6.018.001-12.684.001-12.684z" fill="#4fabf7"/><path d="m504.454 444.606h-155.697v8.724c0 6.123-4.981 11.105-11.105 11.105h-195.304c-6.124 0-11.105-4.982-11.105-11.105v-8.724h-42.617c22.289 18.501 47.912 33.116 75.832 42.832h291.132c3.877 0 7.744-.511 11.46-1.616.02-.006.04-.012.06-.018l25.465-7.591c11.522-3.435 19.421-14.028 19.425-26.051.002-4.17-3.377-7.556-7.546-7.556z" fill="#e9efff"/><path d="m88.626 444.606c22.289 18.501 47.912 33.116 75.832 42.832h76.043c-11.097-11.097 0-21.416 0-21.416l-.511-1.587h-97.642c-6.124 0-11.105-4.982-11.105-11.105v-8.724z" fill="#d3dcfb"/><path d="m129.656 444.606v8.725c0 6.98 5.711 12.691 12.691 12.691h195.304c6.98 0 12.691-5.711 12.691-12.691v-8.725z" fill="#bec8f7"/><path d="m227.81 453.331v-8.725h-98.153v8.725c0 6.98 5.711 12.691 12.691 12.691h98.153c-6.981 0-12.691-5.712-12.691-12.691z" fill="#a3b3ef"/><path d="m408.272 10.998h-336.545c-7.992 0-14.471 6.479-14.471 14.471v30.744h365.487v-30.744c0-7.992-6.478-14.471-14.471-14.471z" fill="#3c58a0"/><path d="m71.727 10.998c-7.992 0-14.471 6.479-14.471 14.471v30.743h62.231c.838-.972 1.456-1.511 1.456-1.511-6.494-6.493 0-12.179 0-12.179s6.688-11.147 0-17.835 0-13.69 0-13.69h-49.216z" fill="#2a428c"/><path d="m57.256 78.987v334.387c1.98 2.36 4.003 4.683 6.07 6.965l359.418.673v-342.025z" fill="#e9efff"/><path d="m57.256 413.374c1.98 2.36 4.003 4.683 6.07 6.966l55.656.104c-6.018-6.018.001-12.684.001-12.684l.498-94.857c-7.687-7.687-.147-14.643-.147-14.643l-.13-94.857c-7.596-7.596 0-14.643 0-14.643s6.379-85.544 0-94.857 1.74-13.915 1.74-13.915c-.335-.335-.64-.667-.943-1h-62.745z" fill="#bec8f7"/><ellipse cx="94.752" cy="33.605" fill="#ff4155" rx="8.917" ry="8.917" transform="matrix(.23 -.973 .973 .23 40.276 118.101)"/><ellipse cx="120.944" cy="33.605" fill="#ffdd40" rx="8.917" ry="8.917" transform="matrix(.924 -.383 .383 .924 -3.654 48.841)"/><ellipse cx="147.136" cy="33.605" fill="#56e28f" rx="8.917" ry="8.917" transform="matrix(.707 -.707 .707 .707 19.333 113.883)"/><g><path d="m342.567 40.605h-160.597c-3.866 0-7-3.134-7-7s3.134-7 7-7h160.597c3.866 0 7 3.134 7 7s-3.134 7-7 7z" fill="#1c2e7a"/></g><g><path d="m388.458 40.605h-16.233c-3.866 0-7-3.134-7-7s3.134-7 7-7h16.233c3.866 0 7 3.134 7 7s-3.133 7-7 7z" fill="#1c2e7a"/></g><path d="m154.355 54.701c0 13.965-11.321 25.286-25.286 25.286h293.675v-25.286z" fill="#d3dcfb"/><path d="m57.256 54.701v25.286h73.511c13.965 0 25.286-11.321 25.286-25.286z" fill="#4fabf7"/><path d="m120.944 54.701h-63.688v25.286h63.688c-13.538-13.538 0-25.286 0-25.286z" fill="#1886ea"/><g><path d="m254.979 119.21h-31.503c-4.142 0-7.5-3.357-7.5-7.5s3.358-7.5 7.5-7.5h31.503c4.142 0 7.5 3.357 7.5 7.5s-3.358 7.5-7.5 7.5z" fill="#73c3f9"/></g><g><path d="m297.483 148.787h-74.007c-4.142 0-7.5-3.357-7.5-7.5s3.358-7.5 7.5-7.5h74.007c4.142 0 7.5 3.357 7.5 7.5s-3.358 7.5-7.5 7.5z" fill="#bec8f7"/></g><g><path d="m297.483 178.363h-74.007c-4.142 0-7.5-3.357-7.5-7.5s3.358-7.5 7.5-7.5h74.007c4.142 0 7.5 3.357 7.5 7.5s-3.358 7.5-7.5 7.5z" fill="#bec8f7"/></g><path d="m334.479 123.864c5.032-8.199 16.108-10.137 23.626-4.136l3.175 2.534c.837.668 2.026.668 2.863 0l3.175-2.534c7.518-6.001 18.594-4.062 23.626 4.136 4.556 7.423 2.34 17.126-4.986 21.836-1.474 1.26-11.481 5.004-20.743 19.29-1.172 1.808-3.833 1.808-5.006 0-9.268-14.295-19.285-18.043-20.744-19.29-7.327-4.71-9.542-14.414-4.986-21.836z" fill="#ff4155"/><g><path d="m254.979 228.71h-31.503c-4.142 0-7.5-3.357-7.5-7.5s3.358-7.5 7.5-7.5h31.503c4.142 0 7.5 3.357 7.5 7.5s-3.358 7.5-7.5 7.5z" fill="#ffdd40"/></g><g><path d="m297.483 258.287h-74.007c-4.142 0-7.5-3.357-7.5-7.5s3.358-7.5 7.5-7.5h74.007c4.142 0 7.5 3.357 7.5 7.5s-3.358 7.5-7.5 7.5z" fill="#bec8f7"/></g><g><path d="m297.483 287.863h-74.007c-4.142 0-7.5-3.357-7.5-7.5s3.358-7.5 7.5-7.5h74.007c4.142 0 7.5 3.357 7.5 7.5s-3.358 7.5-7.5 7.5z" fill="#bec8f7"/></g><path d="m334.479 233.364c5.032-8.199 16.108-10.137 23.626-4.136l3.175 2.534c.837.668 2.026.668 2.863 0l3.175-2.534c7.518-6.001 18.594-4.062 23.626 4.136 4.556 7.423 2.34 17.126-4.986 21.836-1.474 1.26-11.481 5.004-20.743 19.289-1.172 1.808-3.833 1.808-5.006 0-9.268-14.295-19.285-18.043-20.744-19.29-7.327-4.709-9.542-14.413-4.986-21.835z" fill="#ff4155"/><g><path d="m254.979 338.21h-31.503c-4.142 0-7.5-3.357-7.5-7.5s3.358-7.5 7.5-7.5h31.503c4.142 0 7.5 3.357 7.5 7.5s-3.358 7.5-7.5 7.5z" fill="#3c58a0"/></g><g><path d="m297.483 367.787h-74.007c-4.142 0-7.5-3.358-7.5-7.5 0-4.143 3.358-7.5 7.5-7.5h74.007c4.142 0 7.5 3.357 7.5 7.5s-3.358 7.5-7.5 7.5z" fill="#bec8f7"/></g><g><path d="m297.483 397.363h-74.007c-4.142 0-7.5-3.357-7.5-7.5s3.358-7.5 7.5-7.5h74.007c4.142 0 7.5 3.357 7.5 7.5s-3.358 7.5-7.5 7.5z" fill="#bec8f7"/></g><path d="m334.479 342.864c5.032-8.198 16.108-10.137 23.626-4.136l3.175 2.534c.837.668 2.026.668 2.863 0l3.175-2.534c7.518-6.001 18.594-4.062 23.626 4.136 4.556 7.423 2.34 17.126-4.986 21.836-1.474 1.26-11.481 5.004-20.743 19.289-1.172 1.808-3.833 1.808-5.006 0-9.268-14.295-19.285-18.043-20.744-19.29-7.327-4.709-9.542-14.413-4.986-21.835z" fill="#ff4155"/><path d="m181.579 93.902h-102.822c-3.474 0-6.29 2.816-6.29 6.29v77.269l28.46-40.202c4.814-6.8 14.904-6.8 19.718 0l18.377 25.959c.88 1.243 2.724 1.243 3.604 0l3.748-5.294c4.452-6.29 13.786-6.29 18.238 0l20.867 29.476c1.455-1.152 2.392-2.931 2.392-4.931v-82.276c-.002-3.475-2.818-6.291-6.292-6.291z" fill="#73c3f9"/><path d="m110.75 105.467c0-5.394 3.565-9.993 8.454-11.565h-40.447c-3.474 0-6.29 2.816-6.29 6.29v77.269l28.46-40.202c2.399-3.389 6.109-5.087 9.823-5.098z" fill="#4fabf7"/><path d="m164.611 156.987c-4.452-6.29-13.786-6.29-18.238 0l-3.748 5.294c-.88 1.243-2.724 1.243-3.604 0l-18.377-25.959c-4.814-6.8-14.904-6.8-19.718 0l-28.46 40.202v5.944c0 3.474 2.816 6.29 6.29 6.29h102.821c1.67 0 3.183-.655 4.309-1.716z" fill="#4ce088"/><path d="m110.75 177.194v-45.969c-3.714.011-7.424 1.709-9.823 5.098l-28.46 40.202v5.944c0 3.474 2.816 6.29 6.291 6.29h40.447c-4.89-1.573-8.455-6.171-8.455-11.565z" fill="#30c16b"/><path d="m156.86 125.185c0 5.581-4.524 10.105-10.105 10.105s-10.105-4.524-10.105-10.105 4.524-10.105 10.105-10.105 10.105 4.524 10.105 10.105z" fill="#ffdd40"/><path d="m181.579 203.402h-102.822c-3.474 0-6.29 2.816-6.29 6.29v77.269l28.46-40.202c4.814-6.8 14.904-6.8 19.718 0l18.377 25.959c.88 1.243 2.724 1.243 3.604 0l3.748-5.294c4.452-6.29 13.786-6.29 18.238 0l20.867 29.476c1.455-1.152 2.392-2.931 2.392-4.931v-82.276c-.002-3.475-2.818-6.291-6.292-6.291z" fill="#ffdd40"/><path d="m110.75 214.924c0-5.35 3.509-9.913 8.336-11.522h-40.329c-3.474 0-6.29 2.816-6.29 6.29v77.269l28.46-40.202c2.399-3.389 6.109-5.087 9.823-5.098z" fill="#ffb332"/><path d="m164.611 266.487c-4.452-6.29-13.786-6.29-18.238 0l-3.748 5.294c-.88 1.243-2.724 1.243-3.604 0l-18.377-25.959c-4.814-6.8-14.904-6.8-19.718 0l-28.46 40.202v5.944c0 3.474 2.816 6.29 6.29 6.29h102.821c1.67 0 3.183-.655 4.309-1.716z" fill="#2a428c"/><path d="m110.75 286.65v-45.925c-3.714.011-7.424 1.709-9.823 5.098l-28.46 40.202v5.944c0 3.474 2.816 6.29 6.291 6.29h40.577c-4.957-1.532-8.585-6.166-8.585-11.609z" fill="#1c2e7a"/><path d="m156.86 234.685c0 5.581-4.524 10.105-10.105 10.105s-10.105-4.524-10.105-10.105 4.524-10.105 10.105-10.105 10.105 4.524 10.105 10.105z" fill="#fcf2c8"/><path d="m181.579 312.902h-102.822c-3.474 0-6.29 2.816-6.29 6.29v77.269l28.46-40.202c4.814-6.8 14.904-6.8 19.718 0l18.377 25.959c.88 1.243 2.724 1.243 3.604 0l3.748-5.294c4.452-6.29 13.786-6.29 18.238 0l20.867 29.476c1.455-1.152 2.392-2.931 2.392-4.931v-82.276c-.002-3.475-2.818-6.291-6.292-6.291z" fill="#3c58a0"/><path d="m110.75 324.549c0-5.495 3.701-10.161 8.731-11.647h-40.724c-3.474 0-6.29 2.816-6.29 6.29v77.269l28.46-40.202c2.399-3.389 6.109-5.087 9.823-5.098z" fill="#2a428c"/><path d="m164.611 375.987c-4.452-6.29-13.786-6.29-18.238 0l-3.748 5.294c-.88 1.243-2.724 1.243-3.604 0l-18.377-25.959c-4.814-6.8-14.904-6.8-19.718 0l-28.46 40.202v5.944c0 3.474 2.816 6.29 6.29 6.29h102.821c1.67 0 3.183-.655 4.309-1.716z" fill="#1c2e7a"/><path d="m110.75 396.275v-46.05c-3.714.011-7.424 1.709-9.823 5.098l-28.46 40.202v5.944c0 3.474 2.816 6.29 6.291 6.29h40.225c-4.773-1.64-8.233-6.172-8.233-11.484z" fill="#142766"/><path d="m143.176 342.936c-2.921-2.921-3.963-7.001-3.144-10.758.125-.574-.458-1.057-.984-.796-1.507.749-2.885 1.838-4.012 3.292-3.297 4.254-3.227 10.394.192 14.551 4.457 5.419 12.483 5.709 17.323.869.91-.91 1.632-1.934 2.175-3.026.263-.527-.221-1.114-.796-.988-3.756.819-7.834-.223-10.754-3.144z" fill="#ffdd40"/><g fill="#ff92a7"><path d="m385.583 130.299c0 3.544-2.873 6.417-6.417 6.417s-6.417-2.873-6.417-6.417 2.873-6.417 6.417-6.417c3.545 0 6.417 2.873 6.417 6.417z"/><path d="m385.142 240.522c0 3.544-2.873 6.417-6.417 6.417s-6.417-2.873-6.417-6.417 2.873-6.417 6.417-6.417c3.545 0 6.417 2.873 6.417 6.417z"/><path d="m385.476 350.537c0 3.544-2.873 6.417-6.417 6.417s-6.417-2.873-6.417-6.417 2.873-6.417 6.417-6.417 6.417 2.873 6.417 6.417z"/></g></g></svg>